<svg xmlns="http://www.w3.org/2000/svg" viewBox="0 0 512 512"><title>Monument</title><g id="Monument"><g id="Monument-2" data-name="Monument"><path stroke="black" stroke-width="8" stroke-linecap="square" d="M330.7275,391.5148h-8.7129V309.5833a9.4471,9.4471,0,0,0-9.45-9.45h-5.1183l-9.7812-187.038a9.4121,9.4121,0,0,0-2.4066-5.8212L263.034,71.4082a9.4469,9.4469,0,0,0-14.0554,0l-32.2334,35.8632a9.45,9.45,0,0,0-2.41,5.8239l-9.7776,187.038h-5.1219a9.4511,9.4511,0,0,0-9.45,9.45v81.9342h-8.7129a9.4517,9.4517,0,0,0-9.45,9.45v33.3081a9.4511,9.4511,0,0,0,9.45,9.45H330.7275a9.447,9.447,0,0,0,9.45-9.45V400.9675A9.4476,9.4476,0,0,0,330.7275,391.5148Zm-55.692-45.6912v18.9H237.2391v-18.9ZM233.037,117.4171,256.0032,91.858l22.9635,25.5564L288.5211,300.13H223.48Zm88.24,307.4085H190.7226V410.4175H321.2811v14.4081Z" fill="#ffffff" fill-opacity="1"/></g></g></svg>